<svg width="209" height="36" viewBox="0 0 209 36" fill="none" xmlns="http://www.w3.org/2000/svg">
<path d="M0.104274 33.1469C0.559076 33.5571 0.827874 33.0856 1.21788 32.8436C1.81608 32.4005 2.73468 31.7153 2.77788 31.6824C5.9807 30.5871 8.83611 30.9723 10.7777 31.6989C11.0897 37.8944 21.3696 37.0945 21.4128 31.2353C21.3912 25.8152 11.4845 25.5073 10.8299 30.8252C9.11392 30.1889 6.4877 29.9798 4.55029 30.3616C6.0239 29.2663 12.2729 24.6171 13.6079 23.6241C21.426 29.902 31.9956 27.9035 32.0004 27.674C32.7156 27.0957 30.267 26.0203 29.9592 25.7334C25.422 23.0009 19.827 21.9545 14.9861 22.5987C15.8873 21.9256 16.7285 21.3308 17.2308 20.8507C19.5234 18.4915 21.4692 18.2779 23.9742 18.4875C22.605 23.953 33.0144 26.5299 34.7778 21.241C35.7834 17.9132 31.7748 15.784 28.9704 15.4517C26.9466 15.2301 25.122 16.0345 24.2772 17.6876C23.2242 17.5235 21.4602 17.5729 20.3508 17.8967C22.0236 16.2061 23.3148 14.6882 24.2124 13.3668C29.2656 13.6622 34.3578 11.5614 38.1583 6.54752C38.6131 5.85389 39.4843 4.98415 38.6569 4.73817C32.646 5.27558 27.0384 8.34096 24.0348 12.2676C24.039 11.5205 23.961 10.6139 23.6316 9.87934C29.1354 7.31103 24.0954 -1.9584 18.687 0.372451C15.2981 1.96422 16.5371 6.37142 18.171 8.43527C19.2198 9.7731 21.0096 10.5974 22.8036 10.1588C23.3454 11.3734 23.1978 13.552 22.8948 13.7162C20.8884 16.4163 17.1264 19.8464 16.0343 20.7616C15.9953 20.7905 13.4687 22.6697 13.4645 22.6737C14.5091 20.774 14.7947 18.542 14.4875 16.7571C20.7192 15.1284 17.4738 5.08755 12.5111 5.58405C5.7287 6.40891 7.70091 17.344 13.6163 16.8884C14.0975 19.8424 12.9359 22.5669 11.0813 24.4507C10.7825 24.6722 6.5615 27.8109 6.5267 27.8359C8.22531 24.2825 8.30331 19.6828 7.39791 14.628C6.7307 11.4313 6.6311 9.74129 4.84129 13.4708C2.18448 18.8499 2.66568 24.9762 4.39909 29.4157C-0.0517286 32.7816 -0.216728 32.6214 0.104274 33.1469ZM27.7182 9.82423C29.6724 8.31426 32.9532 6.41459 37.7203 5.68006C34.7688 9.84468 30.2532 12.672 24.9054 12.5567C25.3914 11.9415 26.31 10.9115 27.7182 9.82423ZM19.4496 23.3117C22.2708 23.5088 26.4222 24.3456 30.5958 27.136C25.755 27.7143 19.7358 27.0457 14.7995 23.4719C15.7529 23.3282 17.4 23.164 19.4496 23.3117ZM6.1367 12.8856C7.1813 17.2309 8.01291 24.2553 5.0579 28.6704C3.48889 24.2223 3.08988 18.3097 6.1367 12.8856Z" fill="#0E2E09"/>
<path d="M48.96 29V8.84H56.954C58.3167 8.84 59.432 9.11533 60.3 9.666C61.1773 10.2073 61.826 10.9027 62.246 11.752C62.6753 12.6013 62.89 13.4787 62.89 14.384C62.89 15.4947 62.624 16.4373 62.092 17.212C61.5693 17.9867 60.8553 18.5093 59.95 18.78V18.08C61.2193 18.3693 62.1807 18.9713 62.834 19.886C63.4967 20.8007 63.828 21.8413 63.828 23.008C63.828 24.2027 63.5993 25.248 63.142 26.144C62.6847 27.04 62.0033 27.74 61.098 28.244C60.202 28.748 59.0913 29 57.766 29H48.96ZM52.376 25.822H57.346C57.934 25.822 58.4613 25.7053 58.928 25.472C59.3947 25.2293 59.7587 24.8933 60.02 24.464C60.2907 24.0253 60.426 23.5073 60.426 22.91C60.426 22.3687 60.3093 21.8833 60.076 21.454C59.8427 21.0247 59.502 20.684 59.054 20.432C58.606 20.1707 58.0693 20.04 57.444 20.04H52.376V25.822ZM52.376 16.89H56.912C57.3973 16.89 57.8313 16.7967 58.214 16.61C58.5967 16.4233 58.9 16.148 59.124 15.784C59.348 15.42 59.46 14.972 59.46 14.44C59.46 13.74 59.236 13.1567 58.788 12.69C58.34 12.2233 57.7147 11.99 56.912 11.99H52.376V16.89ZM66.6241 29V13.88H69.6061V17.562L69.2421 17.086C69.4287 16.582 69.6761 16.1247 69.9841 15.714C70.3014 15.294 70.6794 14.9487 71.1181 14.678C71.4914 14.426 71.9021 14.23 72.3501 14.09C72.8074 13.9407 73.2741 13.852 73.7501 13.824C74.2261 13.7867 74.6881 13.8053 75.1361 13.88V17.03C74.6881 16.8993 74.1701 16.8573 73.5821 16.904C73.0034 16.9507 72.4807 17.114 72.0141 17.394C71.5474 17.646 71.1647 17.968 70.8661 18.36C70.5767 18.752 70.3621 19.2 70.2221 19.704C70.0821 20.1987 70.0121 20.7353 70.0121 21.314V29H66.6241ZM81.6802 29.42C80.5882 29.42 79.6642 29.2147 78.9082 28.804C78.1522 28.384 77.5782 27.8287 77.1862 27.138C76.8035 26.4473 76.6122 25.6867 76.6122 24.856C76.6122 24.128 76.7335 23.4747 76.9762 22.896C77.2189 22.308 77.5922 21.804 78.0962 21.384C78.6002 20.9547 79.2535 20.6047 80.0562 20.334C80.6629 20.138 81.3722 19.9607 82.1842 19.802C83.0055 19.6433 83.8922 19.4987 84.8442 19.368C85.8055 19.228 86.8089 19.0787 87.8542 18.92L86.6502 19.606C86.6595 18.5607 86.4262 17.7907 85.9502 17.296C85.4742 16.8013 84.6715 16.554 83.5422 16.554C82.8609 16.554 82.2029 16.7127 81.5682 17.03C80.9335 17.3473 80.4902 17.8933 80.2382 18.668L77.1582 17.702C77.5315 16.4233 78.2409 15.3967 79.2862 14.622C80.3409 13.8473 81.7595 13.46 83.5422 13.46C84.8862 13.46 86.0669 13.6793 87.0842 14.118C88.1109 14.5567 88.8715 15.2753 89.3662 16.274C89.6369 16.806 89.8002 17.352 89.8562 17.912C89.9122 18.4627 89.9402 19.0647 89.9402 19.718V29H86.9862V25.724L87.4762 26.256C86.7949 27.348 85.9969 28.1507 85.0822 28.664C84.1769 29.168 83.0429 29.42 81.6802 29.42ZM82.3522 26.732C83.1175 26.732 83.7709 26.5967 84.3122 26.326C84.8535 26.0553 85.2829 25.724 85.6002 25.332C85.9269 24.94 86.1462 24.5713 86.2582 24.226C86.4355 23.7967 86.5335 23.3067 86.5522 22.756C86.5802 22.196 86.5942 21.7433 86.5942 21.398L87.6302 21.706C86.6129 21.8647 85.7402 22.0047 85.0122 22.126C84.2842 22.2473 83.6589 22.364 83.1362 22.476C82.6135 22.5787 82.1515 22.6953 81.7502 22.826C81.3582 22.966 81.0269 23.1293 80.7562 23.316C80.4855 23.5027 80.2755 23.7173 80.1262 23.96C79.9862 24.2027 79.9162 24.4873 79.9162 24.814C79.9162 25.1873 80.0095 25.5187 80.1962 25.808C80.3829 26.088 80.6535 26.312 81.0082 26.48C81.3722 26.648 81.8202 26.732 82.3522 26.732ZM104.043 29V21.72C104.043 21.244 104.01 20.7167 103.945 20.138C103.88 19.5593 103.726 19.004 103.483 18.472C103.25 17.9307 102.895 17.4873 102.419 17.142C101.952 16.7967 101.318 16.624 100.515 16.624C100.086 16.624 99.661 16.694 99.241 16.834C98.821 16.974 98.4383 17.2167 98.093 17.562C97.757 17.898 97.4863 18.3647 97.281 18.962C97.0757 19.55 96.973 20.306 96.973 21.23L94.971 20.376C94.971 19.088 95.2183 17.9213 95.713 16.876C96.217 15.8307 96.9543 15 97.925 14.384C98.8957 13.7587 100.09 13.446 101.509 13.446C102.629 13.446 103.553 13.6327 104.281 14.006C105.009 14.3793 105.588 14.8553 106.017 15.434C106.446 16.0127 106.764 16.6287 106.969 17.282C107.174 17.9353 107.305 18.556 107.361 19.144C107.426 19.7227 107.459 20.194 107.459 20.558V29H104.043ZM93.557 29V13.88H96.567V18.57H96.973V29H93.557ZM117.432 29.42C115.874 29.42 114.544 29.0747 113.442 28.384C112.341 27.684 111.496 26.732 110.908 25.528C110.33 24.324 110.036 22.9613 110.026 21.44C110.036 19.8907 110.339 18.5187 110.936 17.324C111.543 16.12 112.402 15.1773 113.512 14.496C114.623 13.8053 115.944 13.46 117.474 13.46C119.192 13.46 120.643 13.894 121.828 14.762C123.023 15.6207 123.802 16.7967 124.166 18.29L120.806 19.2C120.545 18.388 120.111 17.758 119.504 17.31C118.898 16.8527 118.207 16.624 117.432 16.624C116.555 16.624 115.832 16.834 115.262 17.254C114.693 17.6647 114.273 18.234 114.002 18.962C113.732 19.69 113.596 20.516 113.596 21.44C113.596 22.8773 113.918 24.0393 114.562 24.926C115.206 25.8127 116.163 26.256 117.432 26.256C118.328 26.256 119.033 26.0507 119.546 25.64C120.069 25.2293 120.461 24.6367 120.722 23.862L124.166 24.632C123.7 26.172 122.883 27.3573 121.716 28.188C120.55 29.0093 119.122 29.42 117.432 29.42ZM137.43 29V21.72C137.43 21.244 137.397 20.7167 137.332 20.138C137.266 19.5593 137.112 19.004 136.87 18.472C136.636 17.9307 136.282 17.4873 135.806 17.142C135.339 16.7967 134.704 16.624 133.902 16.624C133.472 16.624 133.048 16.694 132.628 16.834C132.208 16.974 131.825 17.2167 131.48 17.562C131.144 17.898 130.873 18.3647 130.668 18.962C130.462 19.55 130.36 20.306 130.36 21.23L128.358 20.376C128.358 19.088 128.605 17.9213 129.1 16.876C129.604 15.8307 130.341 15 131.312 14.384C132.282 13.7587 133.477 13.446 134.896 13.446C136.016 13.446 136.94 13.6327 137.668 14.006C138.396 14.3793 138.974 14.8553 139.404 15.434C139.833 16.0127 140.15 16.6287 140.356 17.282C140.561 17.9353 140.692 18.556 140.748 19.144C140.813 19.7227 140.846 20.194 140.846 20.558V29H137.43ZM126.944 29V8.84H129.954V19.452H130.36V29H126.944ZM158.155 29.42C156.148 29.42 154.463 28.9767 153.101 28.09C151.738 27.194 150.711 25.9573 150.021 24.38C149.33 22.8027 148.985 20.9827 148.985 18.92C148.985 16.8573 149.33 15.0373 150.021 13.46C150.711 11.8827 151.738 10.6507 153.101 9.764C154.463 8.868 156.148 8.42 158.155 8.42C160.497 8.42 162.397 9.02667 163.853 10.24C165.318 11.4533 166.312 13.0773 166.835 15.112L165.169 15.518C164.739 13.8287 163.937 12.4893 162.761 11.5C161.594 10.5013 160.059 10.002 158.155 10.002C156.503 10.002 155.126 10.38 154.025 11.136C152.933 11.892 152.107 12.942 151.547 14.286C150.996 15.63 150.716 17.1747 150.707 18.92C150.688 20.6653 150.954 22.21 151.505 23.554C152.065 24.8887 152.9 25.9387 154.011 26.704C155.121 27.46 156.503 27.838 158.155 27.838C160.059 27.838 161.594 27.3387 162.761 26.34C163.937 25.3413 164.739 24.002 165.169 22.322L166.835 22.728C166.312 24.7627 165.318 26.3867 163.853 27.6C162.397 28.8133 160.497 29.42 158.155 29.42ZM174.269 29.42C173.103 29.42 172.132 29.2147 171.357 28.804C170.592 28.3933 170.018 27.852 169.635 27.18C169.253 26.4987 169.061 25.7613 169.061 24.968C169.061 24.1093 169.239 23.3907 169.593 22.812C169.957 22.2333 170.438 21.7667 171.035 21.412C171.642 21.0573 172.309 20.7913 173.037 20.614C173.868 20.4273 174.764 20.2687 175.725 20.138C176.687 19.998 177.601 19.8767 178.469 19.774C179.347 19.6713 180.061 19.5827 180.611 19.508L180.023 19.858C180.061 18.2247 179.753 17.0113 179.099 16.218C178.455 15.4153 177.317 15.014 175.683 15.014C174.535 15.014 173.588 15.2753 172.841 15.798C172.104 16.3113 171.586 17.1093 171.287 18.192L169.635 17.73C169.981 16.358 170.676 15.3033 171.721 14.566C172.767 13.8287 174.106 13.46 175.739 13.46C177.13 13.46 178.297 13.7307 179.239 14.272C180.191 14.8133 180.854 15.574 181.227 16.554C181.386 16.9553 181.493 17.4267 181.549 17.968C181.605 18.5 181.633 19.0367 181.633 19.578V29H180.163V25.024L180.709 25.164C180.252 26.5267 179.454 27.5767 178.315 28.314C177.177 29.0513 175.828 29.42 174.269 29.42ZM174.353 27.936C175.38 27.936 176.281 27.754 177.055 27.39C177.83 27.0167 178.455 26.4987 178.931 25.836C179.417 25.164 179.725 24.3753 179.855 23.47C179.949 22.966 180 22.42 180.009 21.832C180.019 21.244 180.023 20.81 180.023 20.53L180.723 20.978C180.117 21.0527 179.389 21.132 178.539 21.216C177.699 21.3 176.841 21.4027 175.963 21.524C175.086 21.6453 174.293 21.7993 173.583 21.986C173.145 22.1073 172.701 22.2847 172.253 22.518C171.815 22.742 171.446 23.0547 171.147 23.456C170.858 23.8573 170.713 24.366 170.713 24.982C170.713 25.4393 170.825 25.8967 171.049 26.354C171.283 26.8113 171.665 27.1893 172.197 27.488C172.729 27.7867 173.448 27.936 174.353 27.936ZM185.269 29V13.88H186.739V17.506L186.375 17.03C186.543 16.6007 186.753 16.204 187.005 15.84C187.266 15.4667 187.532 15.1633 187.803 14.93C188.204 14.5567 188.675 14.2767 189.217 14.09C189.758 13.894 190.304 13.782 190.855 13.754C191.405 13.7167 191.905 13.7587 192.353 13.88V15.406C191.755 15.266 191.121 15.238 190.449 15.322C189.777 15.406 189.147 15.6953 188.559 16.19C188.045 16.638 187.672 17.1607 187.439 17.758C187.205 18.346 187.056 18.9667 186.991 19.62C186.925 20.264 186.893 20.894 186.893 21.51V29H185.269ZM200.96 29.42C199.513 29.42 198.262 29.098 197.208 28.454C196.153 27.8007 195.336 26.8813 194.758 25.696C194.179 24.5013 193.89 23.092 193.89 21.468C193.89 19.816 194.174 18.3927 194.744 17.198C195.322 15.994 196.134 15.07 197.18 14.426C198.234 13.782 199.485 13.46 200.932 13.46C202.397 13.46 203.648 13.796 204.684 14.468C205.729 15.1307 206.522 16.092 207.064 17.352C207.614 18.612 207.876 20.1287 207.848 21.902H206.168V21.342C206.121 19.27 205.654 17.6927 204.768 16.61C203.881 15.5273 202.612 14.986 200.96 14.986C199.252 14.986 197.931 15.5507 196.998 16.68C196.074 17.8 195.612 19.3867 195.612 21.44C195.612 23.4747 196.074 25.052 196.998 26.172C197.931 27.292 199.242 27.852 200.932 27.852C202.098 27.852 203.116 27.5813 203.984 27.04C204.861 26.4893 205.556 25.7053 206.07 24.688L207.526 25.332C206.919 26.6387 206.042 27.6467 204.894 28.356C203.746 29.0653 202.434 29.42 200.96 29.42ZM194.996 21.902V20.446H206.938V21.902H194.996Z" fill="#0E2E09"/>
</svg>
